<svg width="36" height="33" viewBox="0 0 36 33" fill="none" xmlns="http://www.w3.org/2000/svg">
<path d="M7.5 0.87207C5.51088 0.87207 3.60322 1.56116 2.1967 2.78775C0.790176 4.01433 0 5.67794 0 7.4126V25.7261C0 27.4607 0.790176 29.1243 2.1967 30.3509C3.60322 31.5775 5.51088 32.2666 7.5 32.2666H28.5C30.4891 32.2666 32.3968 31.5775 33.8033 30.3509C35.2098 29.1243 36 27.4607 36 25.7261V7.4126C36 5.67794 35.2098 4.01433 33.8033 2.78775C32.3968 1.56116 30.4891 0.87207 28.5 0.87207H7.5ZM10.5 8.7207H25.5C25.8978 8.7207 26.2794 8.85852 26.5607 9.10384C26.842 9.34916 27 9.68188 27 10.0288C27 10.3757 26.842 10.7085 26.5607 10.9538C26.2794 11.1991 25.8978 11.3369 25.5 11.3369H10.5C10.1022 11.3369 9.72064 11.1991 9.43934 10.9538C9.15804 10.7085 9 10.3757 9 10.0288C9 9.68188 9.15804 9.34916 9.43934 9.10384C9.72064 8.85852 10.1022 8.7207 10.5 8.7207ZM10.5 13.9531H19.5C19.8978 13.9531 20.2794 14.0909 20.5607 14.3363C20.842 14.5816 21 14.9143 21 15.2612C21 15.6082 20.842 15.9409 20.5607 16.1862C20.2794 16.4315 19.8978 16.5693 19.5 16.5693H10.5C10.1022 16.5693 9.72064 16.4315 9.43934 16.1862C9.15804 15.9409 9 15.6082 9 15.2612C9 14.9143 9.15804 14.5816 9.43934 14.3363C9.72064 14.0909 10.1022 13.9531 10.5 13.9531ZM10.5 19.1855H25.5C25.8978 19.1855 26.2794 19.3234 26.5607 19.5687C26.842 19.814 27 20.1467 27 20.4937C27 20.8406 26.842 21.1733 26.5607 21.4186C26.2794 21.6639 25.8978 21.8018 25.5 21.8018H10.5C10.1022 21.8018 9.72064 21.6639 9.43934 21.4186C9.15804 21.1733 9 20.8406 9 20.4937C9 20.1467 9.15804 19.814 9.43934 19.5687C9.72064 19.3234 10.1022 19.1855 10.5 19.1855Z" fill="#293145"/>
</svg>
