<svg width="36" height="32" viewBox="0 0 36 32" fill="none" xmlns="http://www.w3.org/2000/svg">
<path d="M18 0C8.055 0 0 7.2022 0 16.0943C0 23.216 5.1525 29.2313 12.3075 31.3638C13.2075 31.5046 13.545 31.0218 13.545 30.5993C13.545 30.2171 13.5225 28.9496 13.5225 27.6017C9 28.3461 7.83 26.616 7.47 25.7107C7.2675 25.2479 6.39 23.8196 5.625 23.4373C4.995 23.1356 4.095 22.3912 5.6025 22.3711C7.02 22.351 8.0325 23.5379 8.37 24.0208C9.99 26.455 12.5775 25.771 13.6125 25.3485C13.77 24.3024 14.2425 23.5983 14.76 23.1959C10.755 22.7936 6.57 21.4054 6.57 15.2494C6.57 13.4991 7.2675 12.0506 8.415 10.924C8.235 10.5217 7.605 8.87199 8.595 6.65902C8.595 6.65902 10.1025 6.23655 13.545 8.30869C14.985 7.94657 16.515 7.7655 18.045 7.7655C19.575 7.7655 21.105 7.94657 22.545 8.30869C25.9875 6.21643 27.495 6.65902 27.495 6.65902C28.485 8.87199 27.855 10.5217 27.675 10.924C28.8225 12.0506 29.52 13.479 29.52 15.2494C29.52 21.4255 25.3125 22.7936 21.3075 23.1959C21.96 23.6989 22.5225 24.6645 22.5225 26.1734C22.5225 28.326 22.5 30.0561 22.5 30.5993C22.5 31.0218 22.8375 31.5247 23.7375 31.3638C27.311 30.2854 30.4163 28.2321 32.6161 25.4929C34.8158 22.7537 35.9994 19.4665 36 16.0943C36 7.2022 27.945 0 18 0Z" fill="#293145"/>
</svg>
