<svg width="36" height="32" viewBox="0 0 36 32" fill="none" xmlns="http://www.w3.org/2000/svg">
<path d="M32 0C33.0609 0 34.0783 0.367514 34.8284 1.02169C35.5786 1.67587 36 2.56313 36 3.48828V27.9062C36 28.8314 35.5786 29.7187 34.8284 30.3728C34.0783 31.027 33.0609 31.3945 32 31.3945H4C2.93913 31.3945 1.92172 31.027 1.17157 30.3728C0.421427 29.7187 0 28.8314 0 27.9062V3.48828C0 2.56313 0.421427 1.67587 1.17157 1.02169C1.92172 0.367514 2.93913 0 4 0H32ZM31 27.0342V17.7902C31 16.2822 30.3131 14.836 29.0903 13.7697C27.8676 12.7034 26.2092 12.1043 24.48 12.1043C22.78 12.1043 20.8 13.0113 19.84 14.3717V12.4357H14.26V27.0342H19.84V18.4356C19.84 17.0926 21.08 15.9938 22.62 15.9938C23.3626 15.9938 24.0748 16.251 24.5999 16.709C25.125 17.1669 25.42 17.788 25.42 18.4356V27.0342H31ZM7.76 9.69742C8.65113 9.69742 9.50576 9.38871 10.1359 8.8392C10.766 8.28969 11.12 7.54439 11.12 6.76727C11.12 5.14522 9.62 3.81967 7.76 3.81967C6.86357 3.81967 6.00385 4.13022 5.36998 4.683C4.73611 5.23578 4.38 5.98551 4.38 6.76727C4.38 8.38932 5.9 9.69742 7.76 9.69742ZM10.54 27.0342V12.4357H5V27.0342H10.54Z" fill="#293145"/>
</svg>
